# xmcd CD database file
#
# Track frame offsets:
#	150
#	14791
#	26093
#	38957
#	50657
#	66496
#	80080
#	91595
#	104943
#	117158
#	130009
#	142078
#	155740
#	169154
#	180747
#
# Disc length: 2670 seconds
#
# Revision: 0
# Processed by: cddbd v1.5.1PL0 Copyright (c) Steve Scherf et al.
# Submitted via: CDex 1.51
#
DISCID=e00a6c0f
DTITLE=Varios - Los 3 Señores De La Salsa Cd 2
DYEAR=2001
DGENRE=Salsa
TTITLE0=Oye Como Va (Aprieta) - Cheo Feliciano
TTITLE1=Oriza (Armada y Fernandez) - Ismael Rivera
TTITLE2=Los Que Lloran Son Los Ninos
TTITLE3=Mujer - Cheo Feliciano
TTITLE4=Cucala, Cuala - Ismael Rivera
TTITLE5=Rumba Oriental - Pete "Conde" Rodriguez
TTITLE6=Collejero - Cheo Feliciano
TTITLE7=Moliendo Cafe (GEMA) - Ismale Rivera
TTITLE8=Mi So Den Boso - Pete "Conde" Rodriguez
TTITLE9=Rosalia - Cheo Feliciano
TTITLE10=Maquina Landera - Ismael Rivera
TTITLE11=Huyes De Mi Amor - Pete "Conde" Rodriguez
TTITLE12=Cachondea - Cheo Feliciano
TTITLE13=Con La Punta Del Pie Teresa - Ismael Rivera
TTITLE14=Congas Callejeras - Pete "Conde" Rodriguez
EXTD=YEAR: 2001
EXTT0=
EXTT1=
EXTT2=
EXTT3=
EXTT4=
EXTT5=
EXTT6=
EXTT7=
EXTT8=
EXTT9=
EXTT10=
EXTT11=
EXTT12=
EXTT13=
EXTT14=
PLAYORDER=
